<?xml version="1.0" encoding="UTF-8"?>
<svg id="Layer_2" data-name="Layer 2" xmlns="http://www.w3.org/2000/svg" viewBox="0 0 800 673.68">
  <defs>
    <style>
      .cls-1 {
        fill: #ffe066;
      }
    </style>
  </defs>
  <g id="Layer_1-2" data-name="Layer 1">
    <g>
      <path class="cls-1" d="M743.18,0H56.82C25.44,0,0,25.44,0,56.82v560.05c0,31.38,25.44,56.82,56.82,56.82h686.36c31.38,0,56.82-25.44,56.82-56.82V56.82c0-31.38-25.44-56.82-56.82-56.82ZM778.95,616.87c0,19.67-16.09,35.77-35.77,35.77H56.82c-19.67,0-35.77-16.09-35.77-35.77V56.82c0-19.67,16.09-35.77,35.77-35.77h686.36c19.67,0,35.77,16.09,35.77,35.77v560.05Z"/>
      <path class="cls-1" d="M368.42,336.84h-231.58c-17.44,0-31.58,14.14-31.58,31.58v168.42c0,17.44,14.14,31.58,31.58,31.58h231.58c17.44,0,31.58-14.14,31.58-31.58v-168.42c0-17.44-14.14-31.58-31.58-31.58ZM378.95,536.84c0,5.79-4.74,10.53-10.53,10.53h-231.58c-5.79,0-10.53-4.74-10.53-10.53v-168.42c0-5.79,4.74-10.53,10.53-10.53h231.58c5.79,0,10.53,4.74,10.53,10.53v168.42Z"/>
      <path class="cls-1" d="M663.16,105.26H136.84c-17.44,0-31.58,14.14-31.58,31.58v105.26c0,17.44,14.14,31.58,31.58,31.58h526.32c17.44,0,31.58-14.14,31.58-31.58v-105.26c0-17.44-14.14-31.58-31.58-31.58ZM673.68,242.11c0,5.79-4.74,10.53-10.53,10.53H136.84c-5.79,0-10.53-4.74-10.53-10.53v-105.26c0-5.79,4.74-10.53,10.53-10.53h526.32c5.79,0,10.53,4.74,10.53,10.53v105.26Z"/>
      <path class="cls-1" d="M673.68,357.89h-210.18c-5.79,0-10.77,4.53-10.88,10.32s4.65,10.73,10.52,10.73h210.18c5.79,0,10.77-4.53,10.88-10.32s-4.65-10.73-10.52-10.73Z"/>
      <path class="cls-1" d="M673.68,442.11h-210.18c-5.79,0-10.77,4.53-10.88,10.32s4.65,10.73,10.52,10.73h210.18c5.79,0,10.77-4.53,10.88-10.32s-4.65-10.73-10.52-10.73Z"/>
      <path class="cls-1" d="M673.68,526.32h-210.18c-5.79,0-10.77,4.53-10.88,10.32-.11,5.9,4.65,10.73,10.52,10.73h210.18c5.79,0,10.77-4.53,10.88-10.32s-4.65-10.73-10.52-10.73Z"/>
    </g>
  </g>
</svg>